@startuml
!include ../../../../../../../StylesForDiagrams.puml

/'Specification'/
package localdata as "com.vanskarner.localdata" {
    package movie{
        class MovieLocalRxRepository
        class MovieLocalDataMapper
    }
}
package domain as "com.vanskarner.domain" {
    package movieDomain as "movie"{
        interface MovieLocalRepository<<interface>>
        entity MovieBO
    }
}
package core as "com.vanskarner.core"{
    package concurrent{
        interface FutureResult<T><<interface>>
        interface FutureSimpleResult<<interface>>
        package rxjava{
            interface RxFutureFactory<<interface>>
        }
    }

}

/'Relations'/
MovieLocalRepository <|.. MovieLocalRxRepository
MovieBO <.. MovieLocalRxRepository: <<use>>
MovieBO <.. MovieLocalDataMapper: <<use>>
FutureResult <.. MovieLocalRxRepository: <<use>>
FutureSimpleResult <.. MovieLocalRxRepository: <<use>>
RxFutureFactory <.. MovieLocalRxRepository: <<use>>
/'Visualization'/
hide members

@enduml