@startuml
!include ../../VanskarnerStyle.puml

<style>
    caption {
    FontColor green
    FontSize 18
    FontStyle bold
    }
</style>

rectangle "DEPENDENCY INVERSION PRINCIPLE" {
    package "High level politics"{
        class UseCase
        interface RemoteRepository<<interface>>

        UseCase --> RemoteRepository
    }
    package "Low level details"{
        class RetrofitRemoteRepository
    }
}
caption CORRECT

RemoteRepository <|.. RetrofitRemoteRepository

hide members
@enduml