@startuml
!include ../../VanskarnerStyle.puml
<style>
    caption {
    FontColor red
    FontSize 18
    FontStyle bold
    }
</style>

rectangle "INTERFACE SEGREGATION PRINCIPLE"{
    note top of RemoteRepository
        method getLocalItems is not supported here
    end note
    note top of LocalRepository
        method getRemoteItems is not supported here
    end note
    interface Repository<<interface>>{
        + getLocalItems(): List<Item>
        + getRemoteItems(): List<Item>
    }
    class RemoteRepository{
        + RemoteRepository(...)
        + getLocalItems(): List<Item>
        + getRemoteItems(): List<Item>
    }
    class LocalRepository{
        + LocalRepository(...)
        + getLocalItems(): List<Item>
        + getRemoteItems(): List<Item>
    }
}

RemoteRepository ..|> Repository
LocalRepository ..|> Repository

caption INCORRECT
hide class attributes
@enduml