@startuml
!include ../../../../../../../StylesForDiagrams.puml

/'Specification'/
package core as "com.vanskarner.core"{
    package sync {
        interface Result<T><<interface>>
        class Success<T>
        class Failure<T>
    }
    package concurrent{
        package rxjava{
            interface RxFutureFactory<<interface>>
            class DefaultRxFutureFactory
            class SingleFutureResult<T>
            class CompletableFutureSimpleResult
        }
        interface FutureResult<T><<interface>>
        interface FutureSimpleResult<<interface>>
    }
}

/'Relations'/
Result <|.. Success
Result <|.. Failure
FutureResult <.. RxFutureFactory
FutureSimpleResult <.. RxFutureFactory
RxFutureFactory <|.. DefaultRxFutureFactory
SingleFutureResult <.. DefaultRxFutureFactory
CompletableFutureSimpleResult <.. DefaultRxFutureFactory
FutureResult <|.. SingleFutureResult
FutureSimpleResult <|.. CompletableFutureSimpleResult
FutureSimpleResult .> FutureResult

/'Visualization'/
hide members
@enduml