@startuml
!include ../../../../../../../../StylesForDiagrams.puml

/'Specification'/
package core as "com.vanskarner.core"{
package sync {
interface Result<T><<interface>>
}
package concurrent {
interface FutureResult<T><<interface>>
interface FutureSimpleResult<<interface>>
package rxjava{
interface RxFutureFactory<<interface>>
}
}
}
package movie as "com.vanskarner.movie"{
    package businesslogic {
        interface MovieServices<<interface>>
        interface MovieLocalRepository<<interface>>
        interface MovieRemoteRepository<<interface>>
    }
    package persistence {
    package local{
    class MovieLocalRxRepository
    }
    package remote{
    class MovieRemoteRxRepository
    }
    }
}

/'Relations'/
Result "<<use>>" <.. MovieServices
FutureResult <.. MovieServices: <<use>>
FutureSimpleResult "<<use>>" <.. MovieLocalRepository
FutureResult <.. MovieLocalRepository: <<use>>
FutureResult <.. MovieRemoteRepository: <<use>>
RxFutureFactory <... MovieRemoteRxRepository: <<use>>
RxFutureFactory <... MovieLocalRxRepository: <<use>>

/'Visualization'/
hide members
skinparam LineType ortho
@enduml