@startuml
!include ../../../StylesForDiagrams.puml

rectangle "PORTS AND ADAPTERS" {
    package app{
        class MoviePresenter
    }
    package domain{
        interface MovieServices<<interface>>
        class MovieDefaultServices classNotVisible
        interface Movies<<interface>>

        MovieServices <|.. MovieDefaultServices
        MovieDefaultServices ..> Movies
    }
    package data{
        class MoviesRepository classNotVisible
    }
}

MoviePresenter ..> MovieServices: <<use>>
Movies <|.. MoviesRepository

hide members
@enduml