@startuml
!include ../../../StylesForDiagrams.puml

<style>
    caption {
    FontColor green
    FontSize 18
    FontStyle bold
    }
</style>

rectangle "DEPENDENCY INVERSION PRINCIPLE" {
    package "High level politics"{
        class UseCase
        interface RemoteRepository<<interface>>

        UseCase --> RemoteRepository
    }
    package "Low level details"{
        class CustomRemoteRepository
    }
}
caption CORRECT

RemoteRepository <|.. CustomRemoteRepository

hide members
@enduml